<?xml version="1.0" standalone="no"?>
<!DOCTYPE svg PUBLIC "-//W3C//DTD SVG 20010904//EN"
 "http://www.w3.org/TR/2001/REC-SVG-20010904/DTD/svg10.dtd">
<svg version="1.0" xmlns="http://www.w3.org/2000/svg"
 width="1024.000000pt" height="1024.000000pt" viewBox="0 0 1024.000000 1024.000000"
 preserveAspectRatio="xMidYMid meet">

<g transform="translate(0.000000,1024.000000) scale(0.100000,-0.100000)"
fill="#000000" stroke="none">
<path d="M2679 7890 c-111 -19 -197 -100 -230 -213 -4 -16 -9 -739 -9 -1606
-1 -1213 1 -1587 10 -1618 21 -71 78 -134 154 -173 l69 -35 860 -3 859 -4 -7
44 c-10 61 -37 111 -71 128 -25 13 -143 15 -806 18 l-778 4 -32 22 c-20 13
-39 39 -50 66 -16 42 -17 153 -17 1536 -1 1631 -4 1559 57 1617 23 22 43 29
103 37 42 5 456 10 977 10 l903 0 38 -37 c21 -21 98 -101 172 -178 294 -309
414 -426 442 -432 l27 -5 0 -179 0 -179 80 0 80 0 0 203 c0 175 -2 205 -18
228 -24 37 -700 736 -720 745 -22 11 -2034 15 -2093 4z"/>
<path d="M3156 7244 c-133 -41 -220 -141 -252 -293 -36 -170 1 -336 96 -431
23 -23 72 -56 108 -73 64 -30 73 -32 187 -32 98 0 130 4 177 22 75 28 142 75
179 126 l30 41 -82 34 -82 33 -31 -30 c-95 -92 -243 -95 -324 -7 -50 55 -67
102 -66 196 0 95 16 150 57 197 39 45 82 63 147 63 66 0 115 -21 166 -71 l42
-41 71 39 c70 39 70 39 54 64 -30 46 -98 111 -135 130 -90 46 -248 61 -342 33z"/>
<path d="M3684 7223 c3 -10 66 -191 140 -403 l134 -385 111 0 111 0 59 170
c33 94 96 273 140 400 45 126 81 231 81 232 0 2 -40 3 -88 3 l-88 0 -99 -290
c-55 -159 -103 -290 -106 -290 -3 0 -48 130 -100 290 l-94 290 -103 0 c-94 0
-103 -2 -98 -17z"/>
<path d="M5230 6620 l-585 -5 -45 -30 c-31 -21 -54 -48 -75 -90 l-30 -59 0
-1020 0 -1021 23 -47 c26 -53 72 -97 135 -130 l42 -23 1435 0 c1379 0 1437 1
1489 19 72 25 154 104 173 166 10 36 13 241 13 1060 l0 1015 -24 48 c-12 26
-38 59 -57 73 -72 55 -53 54 -1018 52 -490 -2 -1154 -5 -1476 -8z m2393 -192
c19 -15 12 -21 -453 -418 -983 -838 -977 -834 -1061 -810 -46 14 -97 55 -633
513 -271 232 -567 486 -659 563 -122 105 -162 145 -154 153 17 17 2937 16
2960 -1z m10 -1063 l2 -800 -31 30 c-57 56 -439 391 -519 455 -44 35 -111 92
-150 125 -38 34 -108 92 -155 129 -47 38 -85 72 -85 77 0 4 41 41 91 81 144
115 556 464 699 591 72 64 134 115 138 114 4 -1 9 -362 10 -802z m-2616 509
c175 -149 359 -308 408 -353 50 -45 110 -94 134 -108 l44 -27 -23 -15 c-30
-20 -127 -103 -318 -270 -81 -71 -244 -213 -362 -316 -118 -103 -219 -193
-225 -200 -7 -8 -9 247 -8 769 2 430 3 785 3 789 0 22 53 -18 347 -269z m908
-773 c86 -59 183 -79 286 -61 82 15 102 26 236 126 62 46 115 84 118 84 3 0
54 -42 113 -93 59 -51 206 -176 327 -277 121 -101 287 -241 368 -312 81 -70
159 -136 172 -146 14 -11 25 -27 25 -36 0 -15 -121 -16 -1422 -14 -1275 3
-1423 5 -1426 18 -2 10 57 67 155 150 86 74 281 243 433 375 151 132 306 266
343 298 l68 57 82 -71 c45 -39 100 -83 122 -98z"/>
<path d="M2944 6016 c-43 -43 -44 -77 -5 -117 l29 -29 582 0 c499 0 585 2 610
15 59 31 68 98 19 139 l-31 26 -585 0 -585 0 -34 -34z"/>
<path d="M2990 5523 c-48 -18 -81 -84 -65 -132 15 -50 30 -51 528 -51 314 0
474 4 496 11 31 11 61 52 61 83 0 28 -22 63 -50 79 -25 15 -76 17 -492 16
-254 0 -470 -3 -478 -6z"/>
<path d="M2948 5020 c-25 -26 -29 -36 -24 -63 4 -18 20 -45 36 -62 l30 -30
581 0 581 0 24 28 c43 51 24 125 -38 146 -21 7 -219 11 -595 11 l-565 0 -30
-30z"/>
<path d="M1629 3626 c-79 -22 -167 -76 -224 -138 -98 -106 -176 -303 -175
-445 1 -136 51 -285 131 -391 204 -269 642 -262 850 14 49 64 54 55 -63 114
l-77 40 -31 -45 c-33 -48 -95 -95 -149 -113 -19 -7 -66 -12 -106 -12 -128 0
-226 66 -286 195 -16 33 -34 94 -40 135 -30 191 74 406 220 455 67 22 179 17
236 -10 40 -20 109 -82 137 -123 l15 -23 81 52 81 51 -29 43 c-65 95 -173 172
-283 201 -64 17 -226 17 -288 0z"/>
<path d="M3040 3530 l0 -90 175 0 175 0 0 -480 0 -480 100 0 100 0 0 480 0
480 175 0 175 0 0 90 0 90 -450 0 -450 0 0 -90z"/>
<path d="M4850 3045 l0 -575 370 0 370 0 0 100 0 100 -265 0 -265 0 0 475 0
475 -105 0 -105 0 0 -575z"/>
<path d="M6723 3532 c-46 -2 -83 -6 -84 -10 0 -4 -6 -47 -12 -97 l-12 -90 -47
-3 -48 -3 0 -80 0 -79 45 0 45 0 0 -266 c0 -180 4 -280 12 -307 17 -56 67
-103 130 -122 83 -24 228 -18 276 13 10 7 10 23 1 81 -11 63 -14 71 -31 65
-31 -10 -125 -6 -148 6 -11 6 -25 22 -30 36 -6 14 -10 131 -10 260 l0 234 100
0 100 0 0 80 0 80 -100 0 -99 0 -3 103 -3 102 -82 -3z"/>
<path d="M7309 3532 l-86 -3 -7 -67 c-13 -134 -12 -132 -65 -132 l-46 0 3 -80
4 -80 38 0 39 0 3 -284 3 -284 30 -43 c45 -64 107 -92 214 -97 55 -2 102 2
131 11 49 15 51 20 35 122 l-6 40 -72 -3 c-62 -3 -76 -1 -99 18 l-28 21 0 250
0 249 90 0 90 0 0 80 0 80 -90 0 -89 0 -3 103 -3 102 -86 -3z"/>
<path d="M4141 3324 c-190 -51 -301 -207 -301 -424 0 -143 46 -257 137 -340
68 -62 142 -91 254 -97 102 -7 170 7 252 50 101 53 164 143 192 273 18 86 18
141 1 225 -27 124 -101 231 -195 278 -97 50 -233 64 -340 35z m206 -165 c38
-14 81 -56 106 -104 32 -62 36 -211 7 -287 -38 -101 -134 -158 -235 -139 -122
23 -175 107 -175 276 0 176 69 264 207 265 34 0 74 -5 90 -11z"/>
<path d="M5917 3316 c-71 -30 -120 -66 -158 -119 -63 -87 -91 -179 -91 -300 0
-193 81 -336 230 -405 52 -25 68 -27 178 -27 118 0 121 1 195 37 40 20 91 54
112 76 l39 39 -72 42 -72 41 -34 -26 c-143 -109 -335 -39 -378 139 l-6 27 285
0 285 0 0 78 c0 191 -90 350 -226 401 -80 30 -209 29 -287 -3z m239 -151 c30
-18 49 -40 68 -77 38 -75 35 -85 -21 -90 -71 -7 -343 -10 -343 -4 0 3 9 29 20
59 46 121 172 173 276 112z"/>
<path d="M7953 3326 c-142 -46 -233 -156 -269 -326 -40 -190 28 -386 167 -479
76 -51 141 -65 267 -59 83 4 109 10 163 35 35 16 86 50 113 75 l49 44 -73 42
-73 42 -35 -27 c-132 -100 -315 -49 -372 104 -11 30 -20 56 -20 58 0 3 131 5
290 5 l290 0 0 68 c-1 177 -78 329 -201 397 -48 26 -65 30 -154 32 -65 2 -115
-2 -142 -11z m207 -156 c45 -23 77 -65 95 -124 l13 -43 -96 -7 c-54 -3 -143
-6 -199 -6 l-102 0 14 45 c38 126 167 190 275 135z"/>
<path d="M8580 2905 l0 -425 105 0 105 0 0 263 c0 236 2 266 19 304 30 65 116
96 209 75 l42 -10 0 109 0 109 -72 0 c-87 0 -142 -23 -192 -81 l-33 -40 -7 32
c-3 17 -6 42 -6 54 0 25 -34 35 -122 35 l-48 0 0 -425z"/>
<path d="M2261 3283 c15 -39 279 -796 279 -800 0 -2 53 -3 119 -3 104 0 119 2
124 18 3 9 35 103 72 207 62 175 205 596 205 602 0 2 -40 3 -89 3 l-88 0 -82
-237 c-46 -131 -92 -266 -104 -300 -12 -35 -24 -63 -28 -63 -3 0 -49 135 -103
300 l-98 300 -109 0 -109 0 11 -27z"/>
</g>
</svg>
